<svg class="lds-spinner" width="95px"  height="95px"  xmlns="http://www.w3.org/2000/svg" xmlns:xlink="http://www.w3.org/1999/xlink" viewBox="0 0 100 100" preserveAspectRatio="xMidYMid" style="background: none;"><g transform="rotate(0 50 50)">
  <rect x="47" y="24" rx="9.4" ry="4.8" width="6" height="12" fill="#7aa83e">
    <animate attributeName="opacity" values="1;0" keyTimes="0;1" dur="3.1s" begin="-2.841666666666667s" repeatCount="indefinite"></animate>
  </rect>
</g><g transform="rotate(30 50 50)">
  <rect x="47" y="24" rx="9.4" ry="4.8" width="6" height="12" fill="#7aa83e">
    <animate attributeName="opacity" values="1;0" keyTimes="0;1" dur="3.1s" begin="-2.5833333333333335s" repeatCount="indefinite"></animate>
  </rect>
</g><g transform="rotate(60 50 50)">
  <rect x="47" y="24" rx="9.4" ry="4.8" width="6" height="12" fill="#7aa83e">
    <animate attributeName="opacity" values="1;0" keyTimes="0;1" dur="3.1s" begin="-2.325s" repeatCount="indefinite"></animate>
  </rect>
</g><g transform="rotate(90 50 50)">
  <rect x="47" y="24" rx="9.4" ry="4.8" width="6" height="12" fill="#7aa83e">
    <animate attributeName="opacity" values="1;0" keyTimes="0;1" dur="3.1s" begin="-2.066666666666667s" repeatCount="indefinite"></animate>
  </rect>
</g><g transform="rotate(120 50 50)">
  <rect x="47" y="24" rx="9.4" ry="4.8" width="6" height="12" fill="#7aa83e">
    <animate attributeName="opacity" values="1;0" keyTimes="0;1" dur="3.1s" begin="-1.8083333333333333s" repeatCount="indefinite"></animate>
  </rect>
</g><g transform="rotate(150 50 50)">
  <rect x="47" y="24" rx="9.4" ry="4.8" width="6" height="12" fill="#7aa83e">
    <animate attributeName="opacity" values="1;0" keyTimes="0;1" dur="3.1s" begin="-1.55s" repeatCount="indefinite"></animate>
  </rect>
</g><g transform="rotate(180 50 50)">
  <rect x="47" y="24" rx="9.4" ry="4.8" width="6" height="12" fill="#7aa83e">
    <animate attributeName="opacity" values="1;0" keyTimes="0;1" dur="3.1s" begin="-1.2916666666666667s" repeatCount="indefinite"></animate>
  </rect>
</g><g transform="rotate(210 50 50)">
  <rect x="47" y="24" rx="9.4" ry="4.8" width="6" height="12" fill="#7aa83e">
    <animate attributeName="opacity" values="1;0" keyTimes="0;1" dur="3.1s" begin="-1.0333333333333334s" repeatCount="indefinite"></animate>
  </rect>
</g><g transform="rotate(240 50 50)">
  <rect x="47" y="24" rx="9.4" ry="4.8" width="6" height="12" fill="#7aa83e">
    <animate attributeName="opacity" values="1;0" keyTimes="0;1" dur="3.1s" begin="-0.775s" repeatCount="indefinite"></animate>
  </rect>
</g><g transform="rotate(270 50 50)">
  <rect x="47" y="24" rx="9.4" ry="4.8" width="6" height="12" fill="#7aa83e">
    <animate attributeName="opacity" values="1;0" keyTimes="0;1" dur="3.1s" begin="-0.5166666666666667s" repeatCount="indefinite"></animate>
  </rect>
</g><g transform="rotate(300 50 50)">
  <rect x="47" y="24" rx="9.4" ry="4.8" width="6" height="12" fill="#7aa83e">
    <animate attributeName="opacity" values="1;0" keyTimes="0;1" dur="3.1s" begin="-0.25833333333333336s" repeatCount="indefinite"></animate>
  </rect>
</g><g transform="rotate(330 50 50)">
  <rect x="47" y="24" rx="9.4" ry="4.8" width="6" height="12" fill="#7aa83e">
    <animate attributeName="opacity" values="1;0" keyTimes="0;1" dur="3.1s" begin="0s" repeatCount="indefinite"></animate>
  </rect>
</g></svg>